<svg id="レイヤー_1" data-name="レイヤー 1" xmlns="http://www.w3.org/2000/svg" viewBox="0 0 1920 1200"><defs><style>.cls-1{fill:#fff;}.cls-2{fill:#d54762;}.cls-3{fill:none;}.cls-4{fill:#d0cd4b;}</style></defs><title>background_whole_white</title><polyline class="cls-1" points="1932 1214 -21 1214 -21 -17 1932 -17"/><path class="cls-2" d="M1592.79,59.2,1467.52,184.47l-58.29,58.29L1265.8,386.19c-152.61,152.61-152.61,400.05,0,552.67l18.39,18.39,58.29,58.29,125.27,125.27,125-125,125,125,478.28-478.28Zm58.29,898.28-58.29-58.29-58.29,58.29-66.75,66.75-67-67L1342.48,899l-18.39-18.39a308.36,308.36,0,0,1,0-436.09L1467.52,301l58.29-58.29,67-67,486.75,486.75-361.71,361.71Z"/><path class="cls-3" d="M1544.19,813.81,1400.77,957.24l67,67,66.75-66.75,58.29-58.29,58.29,58.29,66.75,66.75,361.71-361.71L1592.79,175.77l-67,67,18.39,18.39C1696.81,413.76,1696.81,661.2,1544.19,813.81Z"/><path class="cls-3" d="M1233.77,662.52a306.34,306.34,0,0,0,90.32,218L1342.48,899l143.43-143.43c120.23-120.23,120.23-315.86,0-436.09L1467.52,301,1324.09,444.47A306.34,306.34,0,0,0,1233.77,662.52ZM1411.05,503l9,9.2c58.58,60.15,58.58,158,0,218.18l-69.88,71.76-9-9.2a157.22,157.22,0,0,1,0-218.18Z"/><path class="cls-3" d="M1544.19,813.81,1400.77,957.24l67,67,66.75-66.75,58.29-58.29,58.29,58.29,66.75,66.75,361.71-361.71L1592.79,175.77l-67,67,18.39,18.39C1696.81,413.76,1696.81,661.2,1544.19,813.81Z"/><path class="cls-2" d="M1544.19,813.81c152.61-152.61,152.61-400.05,0-552.67l-18.39-18.39-58.29-58.29L1342.24,59.2l-125,125-125-125L738.71,412.66,797,470.94l295.17-295.17,66.75,66.75,58.29,58.29,58.29-58.29,66.75-66.75,67,67L1467.52,301l18.39,18.39c120.23,120.23,120.23,315.86,0,436.09L1342.48,899l-58.29,58.29-67,67L672.48,478.89l-58.6,58.6,603.32,603.32,125.27-125.27,58.29-58.29Z"/><path class="cls-4" d="M1341.17,793l9,9.2L1420,730.4c58.58-60.15,58.58-158,0-218.18l-9-9.2-69.88,71.76a157.22,157.22,0,0,0,0,218.18Z"/></svg>